<?xml version="1.0" standalone="no"?>
<!DOCTYPE svg PUBLIC "-//W3C//DTD SVG 20010904//EN"
 "http://www.w3.org/TR/2001/REC-SVG-20010904/DTD/svg10.dtd">
<svg version="1.0" xmlns="http://www.w3.org/2000/svg"
 width="900.000000pt" height="900.000000pt" viewBox="0 0 900.000000 900.000000"
 preserveAspectRatio="xMidYMid meet">

<g transform="translate(0.000000,900.000000) scale(0.100000,-0.100000)"
fill="#000000" stroke="none">
<path d="M6996 6925 c-27 -41 -52 -75 -57 -75 -5 0 -46 24 -90 54 l-81 54 -52
-18 c-174 -61 -410 -172 -469 -221 -72 -59 -52 -77 213 -190 248 -106 489
-226 589 -293 88 -59 161 -119 161 -132 0 -3 -29 -42 -64 -88 l-65 -82 40 -47
c35 -40 44 -46 69 -40 25 5 31 2 40 -21 20 -53 -13 -74 -96 -61 -39 6 -54 15
-111 76 -99 104 -94 91 -96 257 l-2 147 -136 2 -137 1 -38 41 -39 40 -78 -14
c-237 -43 -347 -104 -347 -193 0 -34 21 -149 35 -193 5 -16 1 -19 -29 -19 -24
0 -36 5 -36 14 0 19 -62 72 -108 92 -20 9 -99 42 -174 74 -115 47 -141 62
-161 90 -34 51 -158 86 -208 59 -15 -8 -35 -5 -82 10 -274 88 -659 153 -809
136 -330 -38 -552 -191 -718 -495 l-35 -65 -455 -16 -455 -16 -112 28 c-144
36 -271 86 -402 156 -86 45 -111 54 -140 50 -35 -4 -39 -2 -83 57 -60 80 -73
106 -55 106 58 0 128 267 84 322 -9 12 -50 20 -157 32 -80 9 -201 23 -270 31
-314 37 -869 96 -904 97 -31 0 -45 -5 -60 -25 l-21 -25 -173 12 c-95 6 -175
10 -177 8 -1 -2 28 -53 66 -114 37 -61 66 -115 63 -120 -3 -4 -13 -8 -23 -8
-33 0 -164 -50 -197 -75 -27 -21 -44 -25 -98 -25 l-66 0 1 -67 c0 -61 5 -75
42 -137 l42 -69 120 -54 c66 -29 203 -90 305 -135 102 -45 189 -84 193 -88 4
-4 0 -17 -10 -28 -17 -20 -40 -24 -293 -48 -151 -15 -279 -30 -284 -35 -18
-16 5 -55 54 -88 l50 -34 0 -59 0 -58 38 0 c35 0 42 5 78 55 l39 55 63 0 64 0
-54 -49 c-29 -26 -85 -75 -124 -109 -69 -59 -72 -61 -135 -64 l-63 -3 -98
-229 c-54 -126 -98 -235 -98 -241 0 -9 17 -8 63 5 l62 16 37 77 c36 73 39 77
71 77 29 0 76 36 378 291 189 161 363 307 387 327 l42 35 343 -68 c300 -59
347 -71 384 -96 98 -68 238 -121 568 -215 72 -20 133 -38 138 -41 4 -2 -37
-39 -92 -82 l-99 -78 -197 39 c-108 22 -198 38 -201 36 -2 -3 31 -68 74 -145
l77 -141 292 -174 c161 -95 293 -176 293 -179 0 -5 -127 -98 -167 -122 -10 -6
-43 20 -112 86 -276 264 -624 398 -1001 384 -278 -10 -507 -83 -734 -234 -295
-197 -512 -519 -587 -876 -29 -136 -32 -399 -6 -529 56 -280 181 -519 377
-719 198 -201 425 -327 710 -391 148 -33 415 -33 569 1 543 117 968 547 1077
1088 l18 93 139 46 c76 25 142 42 146 38 10 -12 94 -244 90 -247 -2 -2 -31
-14 -63 -28 -58 -24 -63 -29 -173 -182 -62 -86 -113 -159 -113 -162 0 -3 752
-5 1670 -5 l1670 0 1 78 c0 42 2 86 4 97 1 11 6 106 9 210 13 376 37 564 91
689 22 51 29 40 10 -15 -45 -126 -68 -335 -54 -496 51 -590 480 -1063 1067
-1180 107 -21 353 -23 462 -4 402 71 765 342 947 706 54 107 87 200 114 326
33 147 33 379 0 529 -59 275 -216 543 -424 722 -94 81 -235 171 -319 206 -37
15 -68 29 -68 32 0 3 23 23 50 44 28 21 50 40 50 41 0 7 -120 58 -212 90 -198
69 -364 84 -508 46 -41 -11 -86 -23 -100 -26 -44 -11 79 64 205 125 161 78
259 111 477 160 252 56 308 87 308 169 0 92 -145 318 -399 621 -271 323 -401
456 -603 619 -105 84 -108 87 -108 127 0 75 -46 197 -97 258 -26 31 -91 86
-102 86 -3 0 -28 -34 -55 -75z m747 -1269 c59 -14 145 -28 190 -31 124 -10
177 -28 236 -81 60 -54 95 -109 111 -176 21 -83 -3 -117 -93 -131 -66 -10
-205 10 -263 38 -95 47 -248 230 -290 349 -11 31 -12 56 -1 56 1 0 51 -11 110
-24z m-4845 -555 c10 -6 -338 -172 -458 -218 -26 -11 -6 6 165 132 l168 122
56 -14 c31 -8 62 -18 69 -22z m3435 -12 c40 -5 94 -17 120 -26 40 -12 48 -19
45 -36 -7 -49 -642 -396 -850 -465 -144 -48 -243 -42 -382 21 -59 27 -67 40
-38 57 9 6 229 112 487 235 506 242 485 234 618 214z m-3229 -171 c118 -133
229 -270 255 -312 20 -31 23 -50 22 -127 0 -50 -2 -93 -4 -96 -3 -2 -47 13
-98 35 -110 47 -705 293 -766 317 -24 10 -43 20 -43 24 1 8 521 250 540 250 8
-1 51 -41 94 -91z m491 33 l140 -48 3 -67 c2 -36 0 -66 -4 -66 -3 0 -35 25
-70 56 l-63 56 -75 -61 -74 -61 -46 73 -45 72 46 48 c26 26 47 47 48 47 0 -1
63 -22 140 -49z m778 -496 c-35 -30 -63 -68 -84 -111 -28 -57 -33 -76 -32
-142 0 -102 29 -176 92 -241 59 -61 115 -90 206 -107 l70 -14 -76 4 c-136 5
-242 74 -301 194 -29 58 -33 76 -32 142 1 127 55 229 153 291 63 40 64 36 4
-16z m867 -145 c151 -49 365 -117 475 -152 l200 -63 -246 -3 -247 -2 -313 176
c-173 97 -318 180 -323 184 -5 5 33 -5 85 -22 52 -16 218 -70 369 -118z
m-3855 13 c17 -40 65 -223 65 -246 0 -8 -9 -17 -20 -20 -14 -3 -20 -14 -20
-31 0 -14 -6 -26 -13 -26 -25 0 -153 -68 -203 -108 -40 -32 -97 -103 -131
-160 -9 -17 -303 170 -303 194 0 14 84 130 134 183 85 91 252 191 387 231 87
25 87 25 104 -17z m487 -23 c88 -38 221 -126 274 -181 l29 -30 -25 -19 c-21
-16 -48 -19 -205 -22 -99 -2 -184 0 -189 4 -6 5 -41 8 -78 8 -60 0 -68 2 -68
19 0 26 45 198 64 242 l15 37 48 -10 c26 -6 87 -27 135 -48z m5653 -30 c19
-37 55 -184 55 -226 0 -29 -4 -32 -36 -39 -20 -3 -37 -5 -38 -3 -5 6 -108 257
-110 265 -1 6 68 27 106 32 4 1 14 -12 23 -29z m404 -15 c201 -68 386 -225
482 -408 11 -21 18 -41 15 -46 -8 -13 -137 -97 -192 -124 l-52 -26 -37 63
c-72 124 -194 224 -324 266 -56 18 -70 26 -67 39 3 9 15 47 27 86 21 69 65
175 72 175 2 0 36 -11 76 -25z m-711 -92 c5 -16 30 -76 55 -134 l45 -106 -49
-37 -49 -37 -77 57 -77 57 -25 -29 c-14 -16 -40 -47 -58 -69 l-32 -40 -32 31
-31 32 33 48 c45 66 151 171 219 216 30 21 58 37 62 38 3 0 11 -12 16 -27z
m-4073 -40 c30 -21 54 -41 55 -45 0 -5 -69 -8 -152 -7 l-153 0 85 44 c47 24
91 44 98 44 7 1 38 -16 67 -36z m145 -129 c0 -3 -30 -43 -67 -88 -37 -44 -68
-83 -70 -85 -3 -5 -266 -52 -268 -48 -1 1 -13 43 -28 93 -14 50 -29 98 -33
107 -5 15 11 17 173 19 98 2 204 4 236 6 31 2 57 0 57 -4z m-1290 -28 c0 -14
-131 -94 -162 -100 -36 -7 -38 -6 -38 20 0 23 -3 25 -25 20 -22 -6 -25 -3 -25
22 0 16 3 32 7 35 7 7 243 10 243 3z m2850 -88 c-35 -76 -20 -151 42 -215 36
-37 79 -54 140 -55 38 0 40 -2 18 -10 -35 -13 -97 -1 -147 27 -47 28 -93 108
-93 162 0 34 21 95 41 120 19 22 19 15 -1 -29z m-3895 -279 l60 -10 0 -127 c0
-150 22 -229 86 -315 l40 -52 -66 -62 c-84 -79 -180 -143 -213 -143 -47 0
-151 141 -201 273 -10 26 -9 29 19 39 31 10 36 23 21 47 -8 12 -14 13 -37 3
-14 -7 -28 -11 -29 -10 -12 15 -28 124 -32 213 -5 106 -4 111 18 132 13 12 40
24 59 26 47 7 201 -1 275 -14z m2161 -87 c18 -47 21 -64 11 -67 -46 -17 -222
-75 -229 -75 -4 0 -8 40 -8 89 l0 90 48 7 c26 3 65 10 87 14 62 12 66 9 91
-58z m3803 52 c8 -7 -20 -66 -48 -101 l-29 -38 22 -100 c16 -72 26 -100 36
-99 8 0 49 4 90 7 l75 7 28 -63 c15 -35 46 -87 68 -116 l40 -52 -27 -22 c-65
-53 -179 -127 -196 -127 -44 0 -156 204 -193 354 -19 74 -25 125 -25 205 0
126 5 148 34 154 21 5 118 -2 125 -9z m-5375 -53 c24 -26 17 -62 -16 -80 -24
-14 -28 -14 -47 3 -25 23 -27 58 -5 80 21 21 47 20 68 -3z m6946 -20 c25 -7
25 -8 23 -112 -4 -201 -99 -426 -235 -557 l-34 -33 -50 37 c-27 20 -75 62
-106 92 l-57 55 51 61 c89 106 137 235 142 383 2 43 4 79 5 81 3 5 238 -1 261
-7z m-6093 -83 c-4 -40 -17 -109 -29 -153 l-23 -80 -180 -57 c-99 -31 -187
-57 -196 -58 -23 0 -35 18 -43 63 -7 36 -6 37 24 37 27 0 30 2 20 19 -15 29
-12 39 13 43 21 3 24 13 16 48 -2 8 6 19 19 25 24 11 28 20 12 30 -16 10 -12
45 5 45 18 0 20 21 3 38 -7 7 -10 12 -8 13 3 0 79 13 170 29 227 38 204 43
197 -42z m5272 38 c16 -19 10 -66 -10 -79 -44 -28 -95 25 -69 72 13 25 61 29
79 7z m-5379 -382 c0 -7 -73 -112 -99 -142 -18 -20 -23 -22 -43 -11 -31 17
-107 73 -108 79 0 6 214 77 238 79 6 0 12 -1 12 -5z m-930 -94 c104 -35 262
-48 388 -33 52 7 75 6 82 -2 5 -6 25 -58 44 -116 29 -85 33 -106 22 -117 -17
-18 -136 -56 -220 -72 -87 -16 -300 -8 -376 15 -116 34 -140 46 -140 70 0 36
92 285 106 285 1 0 44 -14 94 -30z m6070 -109 c59 -23 78 -25 200 -25 114 0
144 4 194 22 33 12 62 22 66 22 10 0 67 -173 76 -227 5 -34 3 -43 -12 -51 -31
-16 -184 -50 -256 -57 l-68 -7 0 36 c0 32 -3 36 -25 36 -21 0 -25 -5 -25 -30
0 -27 -3 -30 -32 -30 -88 0 -318 77 -318 106 0 19 43 131 74 193 21 41 31 51
44 45 9 -4 46 -18 82 -33z"/>
</g>
</svg>
