<?xml version="1.0" standalone="no"?>
<!DOCTYPE svg PUBLIC "-//W3C//DTD SVG 20010904//EN"
 "http://www.w3.org/TR/2001/REC-SVG-20010904/DTD/svg10.dtd">
<svg version="1.0" xmlns="http://www.w3.org/2000/svg"
 width="512.000000pt" height="512.000000pt" viewBox="0 0 512.000000 512.000000"
 preserveAspectRatio="xMidYMid meet">

<g transform="translate(0.000000,512.000000) scale(0.100000,-0.100000)"
fill="#000000" stroke="none">
<path d="M1208 3393 l-1058 -3 0 -635 0 -635 1670 0 1670 0 0 635 0 635 -592
0 c-326 0 -602 1 -613 3 -11 1 -496 1 -1077 0z"/>
<path d="M3778 3158 l-3 -53 -52 -3 -53 -3 0 -685 0 -684 623 2 622 3 3 195
c1 129 -2 219 -11 265 l-13 70 -82 3 c-74 3 -82 5 -82 23 0 31 -29 429 -35
482 l-6 47 51 0 c58 0 57 -6 32 121 l-17 85 -96 92 -97 92 -390 0 -391 0 -3
-52z m842 -360 c0 -31 29 -427 34 -465 5 -32 3 -33 -30 -33 l-34 0 0 110 0
110 -55 0 -55 0 0 -106 0 -106 -32 5 c-18 3 -73 9 -123 12 -49 4 -98 9 -107
11 -17 5 -18 25 -18 245 l0 239 210 0 c208 0 210 0 210 -22z"/>
<path d="M278 2023 c-2 -10 -2 -51 0 -90 l4 -73 40 0 39 0 -3 88 -3 87 -36 3
c-28 2 -37 -1 -41 -15z"/>
<path d="M650 1950 l0 -90 40 0 40 0 0 90 0 90 -40 0 -40 0 0 -90z"/>
<path d="M1028 1993 c-2 -26 -2 -67 0 -90 4 -43 4 -43 43 -43 l40 0 -3 88 -3
87 -36 3 -36 3 -5 -48z"/>
<path d="M1400 1950 l0 -90 40 0 40 0 0 90 0 90 -40 0 -40 0 0 -90z"/>
<path d="M1778 1963 c-3 -43 -3 -84 0 -90 2 -8 21 -13 43 -13 l40 0 -3 88 -3
87 -36 3 -37 3 -4 -78z"/>
<path d="M2150 1950 l0 -90 40 0 40 0 0 90 0 90 -40 0 -40 0 0 -90z"/>
<path d="M2530 1951 l0 -91 40 0 41 0 -3 88 -3 87 -37 3 -38 3 0 -90z"/>
<path d="M2900 1950 l0 -90 40 0 40 0 0 90 0 90 -40 0 -40 0 0 -90z"/>
<path d="M3278 2023 c-2 -10 -2 -51 0 -90 l4 -73 40 0 39 0 -3 88 -3 87 -36 3
c-28 2 -37 -1 -41 -15z"/>
<path d="M208 1792 l-58 -3 0 -234 0 -235 55 0 55 0 -6 -53 c-23 -198 122
-401 326 -453 212 -54 443 73 510 281 l13 40 13 -46 c30 -101 141 -217 251
-260 46 -18 78 -23 159 -23 96 -1 103 1 175 36 164 81 254 227 247 400 l-3 78
103 0 102 0 0 -110 0 -111 88 3 87 3 3 258 2 257 165 0 c91 0 165 -3 165 -6 0
-3 -31 -36 -68 -72 -80 -78 -116 -146 -133 -250 -54 -328 297 -594 597 -453
85 40 174 125 211 201 l28 60 206 0 207 0 27 -56 c33 -67 123 -163 183 -193
201 -102 434 -42 563 145 16 23 33 54 39 68 8 23 15 26 55 26 l45 0 0 -45 0
-46 33 5 c34 6 254 36 262 36 3 0 5 65 5 145 0 137 -1 145 -19 145 -11 0 -22
3 -24 8 -3 4 4 63 14 132 10 69 19 137 19 153 l0 27 -565 0 -565 0 0 -60 0
-60 -279 0 c-306 0 -291 -3 -291 61 l0 28 138 3 137 3 3 83 3 82 -598 0 c-329
1 -1055 2 -1613 3 -558 1 -1041 1 -1072 -1z m586 -399 c111 -78 113 -244 4
-323 -119 -86 -285 -16 -313 131 -15 79 39 173 120 211 56 26 135 19 189 -19z
m840 0 c111 -78 113 -244 4 -323 -119 -86 -285 -16 -313 131 -15 79 39 173
120 211 56 26 135 19 189 -19z m1360 0 c111 -78 113 -244 4 -323 -119 -86
-285 -16 -313 131 -15 79 39 173 120 211 56 26 135 19 189 -19z m1240 0 c111
-78 113 -244 4 -323 -119 -86 -285 -16 -313 131 -15 79 39 173 120 211 56 26
135 19 189 -19z"/>
</g>
</svg>
